<svg width="200" height="74" viewBox="0 0 200 74" fill="none" xmlns="http://www.w3.org/2000/svg">
<path fill-rule="evenodd" clip-rule="evenodd" d="M190.507 2.00007C189.566 1.99404 188.661 2.36197 187.991 3.02297C187.321 3.68398 186.941 4.58397 186.934 5.52511V33.7254C186.934 35.6718 188.536 37.2505 190.51 37.2505C191.45 37.2558 192.355 36.8876 193.024 36.2267C193.694 35.5658 194.073 34.6661 194.08 33.7254V5.52511C194.08 3.57879 192.481 2.00007 190.507 2.00007ZM173.829 33.1967C174.149 34.0516 174.794 34.7451 175.624 35.1262C176.454 35.5073 177.4 35.545 178.258 35.2311C178.683 35.0826 179.074 34.8511 179.409 34.5501C179.744 34.2491 180.015 33.8846 180.208 33.4776C180.401 33.0707 180.511 32.6296 180.532 32.1798C180.553 31.73 180.484 31.2806 180.33 30.8576C180.216 30.5554 177.953 24.5629 172.295 20.295L181.083 10.6515C181.994 9.64941 182.226 8.20918 181.669 6.98045C181.392 6.37593 180.946 5.86383 180.386 5.50497C179.826 5.14612 179.175 4.95561 178.509 4.95607H156.956C155.045 4.95607 153.497 6.48443 153.497 8.37033C153.497 10.2537 155.045 11.7821 156.956 11.7821H170.747L154.383 29.7396C154.079 30.0707 153.844 30.4592 153.692 30.8824C153.54 31.3056 153.474 31.7549 153.498 32.2038C153.522 32.6528 153.636 33.0924 153.832 33.4968C154.029 33.9013 154.304 34.2623 154.642 34.5589C155.304 35.1455 156.13 35.4351 156.956 35.4351C157.903 35.4351 158.845 35.0524 159.529 34.302L167.647 25.3938C171.943 28.39 173.783 33.0834 173.826 33.1992L173.829 33.1967ZM96.8533 2C95.9218 2.00109 95.0277 2.36827 94.3641 3.02297C93.6941 3.68398 93.314 4.58397 93.3074 5.52511V33.7254C93.3074 35.6718 94.9087 37.2505 96.8827 37.2505H96.884C96.9428 37.2508 97.0015 37.2497 97.0599 37.2471C97.9369 37.2087 98.771 36.8463 99.3985 36.2267C100.068 35.5658 100.448 34.6661 100.454 33.7254V5.52511C100.454 3.57879 98.8555 2.00007 96.8815 2.00007L96.8533 2ZM139.259 7.13666C139.259 5.25328 140.808 3.72492 142.719 3.72492C144.63 3.72492 146.178 5.25328 146.178 7.13918V67.3645C146.178 69.2504 144.63 70.7762 142.719 70.7762C141.808 70.7823 140.932 70.4263 140.283 69.7865C139.634 69.1468 139.266 68.2756 139.259 67.3645V55.9988C131.726 57.8444 120.843 58.3908 114.554 58.3908H109.289C108.378 58.3968 107.502 58.0408 106.853 57.401C106.204 56.7613 105.836 55.8901 105.829 54.979C105.829 53.0931 107.378 51.5648 109.289 51.5648H114.554C125.577 51.5648 134.674 50.3234 139.259 48.9159V7.13666ZM121.056 43.342C125.246 43.342 128.741 41.1514 130.901 37.1681C132.608 34.0157 133.512 29.6598 133.512 24.5686C133.512 19.4775 132.608 15.1215 130.899 11.9691C128.741 7.98584 125.246 5.79527 121.056 5.79527C116.867 5.79527 113.372 7.98584 111.211 11.9691C109.504 15.1215 108.6 19.4775 108.6 24.5686C108.6 29.6598 109.504 34.0157 111.214 37.1681C113.372 41.1489 116.867 43.342 121.056 43.342ZM121.057 12.6212C126.327 12.6212 126.596 22.5719 126.596 24.5686C126.596 26.5627 126.327 36.5159 121.057 36.5159C115.787 36.5159 115.517 26.5627 115.517 24.5686C115.517 22.5744 115.784 12.6212 121.057 12.6212ZM72.6806 63.341C74.3273 64.5974 79.975 67.0549 96.8272 62.7367C97.7101 62.5064 98.6483 62.6337 99.4379 63.091C100.228 63.5483 100.805 64.2986 101.045 65.1791C101.157 65.6151 101.183 66.0691 101.119 66.515C101.055 66.9608 100.904 67.3896 100.673 67.7766C100.443 68.1636 100.138 68.5011 99.7768 68.7696C99.4152 69.0382 99.0041 69.2324 98.567 69.3411C91.6554 71.1137 85.7384 71.9975 80.8537 72C75.4402 72 71.2933 70.9123 68.4481 68.7419C65.6708 66.6193 64.2029 63.5475 64.2029 59.8487V54.4025C64.2029 52.5191 65.7489 50.9882 67.66 50.9882H92.091V45.8769H67.66C66.7493 45.8823 65.8737 45.526 65.2256 44.8863C64.5774 44.2466 64.2096 43.3759 64.2029 42.4652C64.2029 40.5793 65.7489 39.0509 67.66 39.0509H95.5506C97.4617 39.0509 99.0077 40.5793 99.0077 42.4652V54.4025C99.0077 56.2884 97.4617 57.8167 95.5506 57.8167H71.1195V59.8487C71.1195 61.44 71.6005 62.5176 72.6806 63.341ZM49.1646 3.207C47.2535 3.207 45.705 4.73536 45.705 6.61873V27.785H40.9058V9.07766C40.9058 7.19177 39.3573 5.66341 37.4462 5.66341C35.5352 5.66341 33.9867 7.19177 33.9867 9.07514V64.2672C33.9933 65.1783 34.3615 66.0495 35.0102 66.6892C35.6589 67.329 36.5351 67.685 37.4462 67.6789C39.3573 67.6789 40.9058 66.1531 40.9058 64.2672V34.611H45.705V66.8466C45.7116 67.7577 46.0798 68.6288 46.7285 69.2686C47.3773 69.9084 48.2535 70.2643 49.1646 70.2583C51.0756 70.2583 52.6241 68.7325 52.6241 66.8466V6.62125C52.6241 4.73536 51.0756 3.207 49.1646 3.207ZM27.9409 49.0235C23.4214 50.1782 19.3395 50.599 13.0498 50.599L8.70982 50.6147C6.79874 50.6147 5.25024 49.0889 5.25024 47.203V47.1872V15.4877C5.25024 13.6018 6.79874 12.0734 8.70982 12.0734C10.6234 12.0734 12.1719 13.6018 12.1719 15.4877V43.773H13.0498C20.714 43.6499 23.3558 43.3482 27.9409 41.9407C28.8238 41.7103 29.762 41.8375 30.5516 42.2948C31.3413 42.7521 31.9186 43.5024 32.1583 44.3829C32.2711 44.8189 32.2964 45.2729 32.2327 45.7188C32.169 46.1646 32.0176 46.5934 31.7872 46.9804C31.5568 47.3674 31.2521 47.7049 30.8905 47.9734C30.529 48.242 30.1178 48.4362 29.6807 48.5449L27.9409 49.0235ZM78.2962 18.445C78.2962 22.275 75.1914 25.3798 71.3614 25.3798C67.5315 25.3798 64.4267 22.275 64.4267 18.445C64.4267 14.6151 67.5315 11.5103 71.3614 11.5103C75.1914 11.5103 78.2962 14.6151 78.2962 18.445ZM84.5909 18.445C84.5909 25.7515 78.6679 31.6745 71.3614 31.6745C64.055 31.6745 58.132 25.7515 58.132 18.445C58.132 11.1386 64.055 5.21556 71.3614 5.21556C78.6679 5.21556 84.5909 11.1386 84.5909 18.445ZM191.29 42.3013C189.379 42.3013 187.831 43.8296 187.831 45.7155V50.9905H167.244V45.7155C167.244 43.8296 165.696 42.3013 163.785 42.3013C161.874 42.3013 160.325 43.8296 160.325 45.7155V62.4015C160.325 67.2208 164.301 71.1411 169.186 71.1411H185.889C190.774 71.1411 194.75 67.2208 194.75 62.4015V45.7155C194.75 43.8296 193.201 42.3013 191.29 42.3013ZM185.889 64.3151H169.186C168.115 64.3151 167.244 63.4565 167.244 62.399V57.8165H187.831V62.4015C187.831 63.4591 186.959 64.3151 185.889 64.3151Z" fill="#2F3438"/>
</svg>
