<svg width="200" height="56" viewBox="0 0 200 56" fill="none" xmlns="http://www.w3.org/2000/svg">
<path d="M140.708 55.5286L165.316 0.528564H175.315L200 55.5286H189.376L168.206 5.94999H172.268L151.176 55.5286H140.708ZM152.036 42.8L154.77 34.7857H184.298L187.032 42.8H152.036Z" fill="#191919"/>
<path d="M76.177 55.5286V0.528564H84.5356L108.44 40.6786H104.065L127.579 0.528564H135.937L136.015 55.5286H126.407L126.329 15.6929H128.36L108.362 49.2428H103.831L83.5201 15.6929H85.8636V55.5286H76.177Z" fill="#191919"/>
<path d="M53.5747 55.5286V0.528564H63.73V55.5286H53.5747Z" fill="#191919"/>
<path d="M0 55.5286V0.528564H22.4979C27.3413 0.528564 31.4815 1.31428 34.9187 2.88571C38.4079 4.45714 41.09 6.70952 42.9648 9.64285C44.8396 12.5762 45.7771 16.0595 45.7771 20.0928C45.7771 24.1262 44.8396 27.6095 42.9648 30.5428C41.09 33.4762 38.4079 35.7286 34.9187 37.3C31.4815 38.8714 27.3413 39.6571 22.4979 39.6571H5.62449L10.1553 34.8643V55.5286H0ZM10.1553 35.9643L5.62449 31.0143H22.0292C26.508 31.0143 29.8671 30.0714 32.1064 28.1857C34.3979 26.2476 35.5436 23.55 35.5436 20.0928C35.5436 16.5833 34.3979 13.8857 32.1064 12C29.8671 10.1143 26.508 9.17142 22.0292 9.17142H5.62449L10.1553 4.14285V35.9643Z" fill="#191919"/>
</svg>
