<svg width="24" height="25" viewBox="0 0 24 25" fill="none" xmlns="http://www.w3.org/2000/svg">
<rect x="0.2" y="0.7" width="23.6" height="23.6" rx="3.8" stroke="#4D4D4D" stroke-width="0.4"/>
<path d="M12.5 15.4999V18.2499C12.5 19.7679 11.268 20.9999 9.75 20.9999C8.232 20.9999 7 19.7679 7 18.2499C7 16.7319 8.232 15.4999 9.75 15.4999M12.5 15.4999H9.75M12.5 15.4999V10.0001M9.75 15.4999C8.232 15.4999 7 14.2681 7 12.7501C7 11.2321 8.232 10.0001 9.75 10.0001M9.75 10.0001H12.5M9.75 10.0001C8.232 10.0001 7 8.76801 7 7.25C7 5.732 8.232 4.5 9.75 4.5H12.5M12.5 10.0001V4.5M12.5 10.0001L15.25 10M12.5 4.5H15.25C16.768 4.5 18 5.732 18 7.25C18 8.76801 16.768 10 15.25 10M15.25 10C13.732 10 12.5 11.2321 12.5 12.7501C12.5 14.2681 13.732 15.5001 15.25 15.5001C16.768 15.5001 18 14.2681 18 12.7501C18 11.2321 16.768 10 15.25 10Z" stroke="#4D4D4D" stroke-width="0.89"/>
</svg>
