<svg width="24" height="25" viewBox="0 0 24 25" fill="none" xmlns="http://www.w3.org/2000/svg">
<rect x="0.2" y="0.7" width="23.6" height="23.6" rx="3.8" stroke="#4D4D4D" stroke-width="0.4"/>
<g clip-path="url(#clip0_216_2660)">
<path d="M20.6605 11.698L12.8016 3.83945C12.3492 3.38685 11.6152 3.38685 11.1623 3.83945L9.53034 5.4714L11.6006 7.54162C12.0816 7.37905 12.6333 7.48811 13.0168 7.87159C13.4021 8.25754 13.5104 8.81392 13.3439 9.29654L15.339 11.2917C15.8217 11.1254 16.3786 11.233 16.7642 11.6192C17.303 12.1578 17.303 13.0307 16.7642 13.5696C16.2252 14.1087 15.3523 14.1087 14.8131 13.5696C14.4078 13.1639 14.3077 12.5687 14.5128 12.0695L12.6522 10.2088L12.652 15.1052C12.7869 15.1719 12.9101 15.26 13.0168 15.3661C13.5556 15.9047 13.5556 16.7777 13.0168 17.317C12.4778 17.8558 11.6045 17.8558 11.0663 17.317C10.5275 16.7777 10.5275 15.9047 11.0663 15.3661C11.1954 15.2369 11.3489 15.1346 11.5178 15.0651V10.1231C11.3486 10.0541 11.1951 9.95172 11.0663 9.82213C10.6581 9.41446 10.5599 8.81547 10.7691 8.31421L8.72836 6.27325L3.33961 11.6616C2.8868 12.1147 2.8868 12.8488 3.33961 13.3015L11.1987 21.1602C11.6512 21.6128 12.3851 21.6128 12.8381 21.1602L20.6605 13.338C21.1131 12.8852 21.1132 12.1506 20.6605 11.698Z" fill="#4D4D4D"/>
</g>
<defs>
<clipPath id="clip0_216_2660">
<rect width="18" height="18" fill="white" transform="translate(3 3.5)"/>
</clipPath>
</defs>
</svg>
