<svg width="24" height="25" viewBox="0 0 24 25" fill="none" xmlns="http://www.w3.org/2000/svg">
<rect x="0.2" y="0.7" width="23.6" height="23.6" rx="3.8" stroke="#4D4D4D" stroke-width="0.4"/>
<g clip-path="url(#clip0_216_2665)">
<path d="M12.0004 3.5459C7.03036 3.5459 3 7.57481 3 12.5455C3 16.5224 5.57897 19.8957 9.15468 21.0855C9.60426 21.1686 9.76979 20.8903 9.76979 20.6525C9.76979 20.4378 9.76111 19.7288 9.7575 18.977C7.2537 19.5213 6.72533 17.9152 6.72533 17.9152C6.31623 16.8751 5.7257 16.5983 5.7257 16.5983C4.90893 16.0396 5.78713 16.0511 5.78713 16.0511C6.69064 16.1147 7.16697 16.9785 7.16697 16.9785C7.97 18.3547 9.2725 17.9564 9.78569 17.7266C9.86664 17.1447 10.0994 16.7479 10.3574 16.5231C8.35815 16.2954 6.25696 15.5235 6.25696 12.075C6.25696 11.0927 6.60824 10.2897 7.18432 9.65938C7.09107 9.43314 6.78316 8.51807 7.27177 7.27846C7.27177 7.27846 8.02783 7.03632 9.74738 8.20076C10.4651 8.00126 11.2349 7.90152 12.0004 7.8979C12.7651 7.90152 13.5356 8.00126 14.2548 8.20076C15.9729 7.03632 16.7275 7.27846 16.7275 7.27846C17.2176 8.51807 16.9089 9.43386 16.8157 9.6601C17.3925 10.2904 17.7416 11.0934 17.7416 12.0757C17.7416 15.5322 15.6361 16.294 13.6317 16.5166C13.9548 16.7956 14.2425 17.3435 14.2425 18.1834C14.2425 19.3876 14.2324 20.3569 14.2324 20.6532C14.2324 20.8925 14.3943 21.1737 14.8504 21.0847C18.4246 19.8936 21 16.521 21 12.5455C21 7.57481 16.9704 3.5459 12.0004 3.5459Z" fill="#4D4D4D"/>
</g>
<defs>
<clipPath id="clip0_216_2665">
<rect width="18" height="18.0433" fill="white" transform="translate(3 3.5)"/>
</clipPath>
</defs>
</svg>
