<svg width="24" height="24" viewBox="0 0 24 24" fill="none" xmlns="http://www.w3.org/2000/svg">
<rect x="0.2" y="0.2" width="23.6" height="23.6" rx="3.8" stroke="#4D4D4D" stroke-width="0.4"/>
<path d="M19.9754 17.0777C19.8305 16.1743 19.2414 15.4158 17.4966 14.7081C16.8906 14.4295 16.2149 14.2301 16.0135 13.7708C15.942 13.5035 15.9326 13.353 15.9778 13.1911C16.1076 12.666 16.7344 12.5022 17.2313 12.6528C17.5512 12.7601 17.8542 13.0067 18.0368 13.4C18.8913 12.8467 18.8894 12.8504 19.486 12.4703C19.2677 12.1315 19.151 11.9752 19.008 11.8303C18.4942 11.2563 17.794 10.9608 16.6741 10.9834C16.4803 11.0078 16.2846 11.0342 16.0907 11.0587C15.5317 11.1998 14.999 11.4934 14.6866 11.8868C13.7493 12.9502 14.0166 14.8116 15.1571 15.5777C16.2808 16.4209 17.9314 16.6128 18.1422 17.4014C18.3474 18.367 17.4327 18.6794 16.5236 18.5684C15.8535 18.4291 15.4809 18.0884 15.0781 17.4692C14.3366 17.8983 14.3366 17.8983 13.5743 18.3369C13.755 18.7321 13.9451 18.9109 14.2481 19.2535C15.6823 20.7083 19.2715 20.6368 19.9152 18.4347C19.9415 18.3594 20.1147 17.855 19.9754 17.0777ZM12.5598 11.1001H10.7078C10.7078 12.6999 10.7003 14.2884 10.7003 15.8882C10.7003 16.9064 10.753 17.84 10.5874 18.126C10.3163 18.6888 9.6143 18.6192 9.29433 18.51C8.96873 18.35 8.8031 18.1223 8.61112 17.8004C8.55842 17.7082 8.5189 17.6367 8.5057 17.631C8.00319 17.9378 7.50253 18.2465 7 18.5533C7.25034 19.0671 7.61922 19.5132 8.09163 19.803C8.79743 20.2265 9.74603 20.3563 10.7379 20.1286C11.3835 19.9404 11.9406 19.5508 12.2323 18.9579C12.6539 18.1806 12.5636 17.2396 12.5598 16.1987C12.5692 14.5011 12.5598 12.8034 12.5598 11.1001Z" fill="#4D4D4D"/>
</svg>
