<svg width="24" height="25" viewBox="0 0 24 25" fill="none" xmlns="http://www.w3.org/2000/svg">
<rect x="0.2" y="0.7" width="23.6" height="23.6" rx="3.8" stroke="#4D4D4D" stroke-width="0.4"/>
<path d="M11.624 4.5C11.624 6.42 13.2 7.98 15.104 7.98H16.528V9.34C16.528 11.26 18.08 12.812 20 12.82V5.172C20 4.99377 19.9292 4.82285 19.8032 4.69682C19.6772 4.5708 19.5062 4.5 19.328 4.5H11.624ZM7.816 8.34C7.82021 9.25954 8.18736 10.1402 8.83757 10.7904C9.48779 11.4406 10.3685 11.8078 11.288 11.812H12.728V13.188C12.7322 14.1075 13.0994 14.9882 13.7496 15.6384C14.3998 16.2886 15.2805 16.6558 16.2 16.66V9.004C16.1979 8.82854 16.1273 8.66085 16.0032 8.53678C15.8791 8.4127 15.7115 8.34208 15.536 8.34H7.816ZM4 12.18C4 14.1 5.56 15.652 7.48 15.652H8.904V17.028C8.912 18.94 10.464 20.5 12.376 20.5V12.844C12.376 12.6658 12.3052 12.4948 12.1792 12.3688C12.0532 12.2428 11.8822 12.172 11.704 12.172L4 12.18Z" fill="#4D4D4D"/>
</svg>
