<svg width="24" height="24" viewBox="0 0 24 24" fill="none" xmlns="http://www.w3.org/2000/svg">
<rect x="0.2" y="0.2" width="23.6" height="23.6" rx="3.8" stroke="#4D4D4D" stroke-width="0.4"/>
<g clip-path="url(#clip0_214_2474)">
<path d="M11.4113 3.01412C11.3726 3.01763 11.2496 3.02994 11.1389 3.03872C8.585 3.26897 6.19285 4.64697 4.67777 6.76492C3.8341 7.94254 3.2945 9.27835 3.09062 10.6932C3.01855 11.1871 3.00977 11.333 3.00977 12.0027C3.00977 12.6724 3.01855 12.8182 3.09062 13.3121C3.57924 16.6886 5.98194 19.5254 9.2406 20.5765C9.82414 20.7645 10.4393 20.8928 11.1389 20.9702C11.4113 21.0001 12.5889 21.0001 12.8613 20.9702C14.0688 20.8366 15.0918 20.5378 16.1007 20.0228C16.2553 19.9437 16.2852 19.9226 16.2641 19.905C16.2501 19.8945 15.591 19.0104 14.8 17.9418L13.3623 15.9996L11.5607 13.3332C10.5694 11.8674 9.75383 10.6686 9.7468 10.6686C9.73977 10.6669 9.73274 11.8515 9.72923 13.2981C9.72395 15.8308 9.7222 15.9328 9.69056 15.9925C9.64486 16.0787 9.60971 16.1138 9.53589 16.1525C9.47964 16.1806 9.43043 16.1859 9.16502 16.1859H8.86095L8.7801 16.1349C8.72737 16.1015 8.6887 16.0576 8.66234 16.0066L8.62543 15.9275L8.62894 12.4034L8.63422 8.87761L8.6887 8.80906C8.71683 8.77215 8.77659 8.72469 8.81877 8.70184C8.89083 8.66669 8.91895 8.66317 9.22303 8.66317C9.58158 8.66317 9.64134 8.67724 9.7345 8.77918C9.76086 8.8073 10.7364 10.2767 11.9034 12.0466C13.0705 13.8166 14.6664 16.2333 15.4503 17.4197L16.874 19.5764L16.9461 19.5289C17.5841 19.1141 18.2591 18.5235 18.7934 17.9084C19.9306 16.6024 20.6635 15.01 20.9096 13.3121C20.9816 12.8182 20.9904 12.6724 20.9904 12.0027C20.9904 11.333 20.9816 11.1871 20.9096 10.6932C20.421 7.31682 18.0183 4.47999 14.7596 3.42892C14.1848 3.24261 13.5732 3.1143 12.8877 3.03697C12.719 3.01939 11.5572 3.00006 11.4113 3.01412ZM15.0918 8.45226C15.1762 8.49444 15.2447 8.57529 15.2693 8.65966C15.2834 8.70536 15.2869 9.68261 15.2834 11.8849L15.2781 15.0452L14.7209 14.191L14.162 13.3367V11.0395C14.162 9.5543 14.169 8.71942 14.1796 8.67899C14.2077 8.58056 14.2692 8.50323 14.3536 8.45753C14.4256 8.42062 14.452 8.4171 14.728 8.4171C14.9881 8.4171 15.0338 8.42062 15.0918 8.45226Z" fill="#4D4D4D"/>
<path d="M16.7861 19.615C16.7246 19.6537 16.7053 19.6801 16.7598 19.6502C16.7984 19.6273 16.8617 19.5799 16.8512 19.5781C16.8459 19.5781 16.816 19.5957 16.7861 19.615ZM16.6648 19.6941C16.6332 19.7187 16.6332 19.7205 16.6719 19.7012C16.693 19.6906 16.7105 19.6783 16.7105 19.6748C16.7105 19.6607 16.7018 19.6642 16.6648 19.6941ZM16.577 19.7469C16.5453 19.7715 16.5453 19.7732 16.584 19.7539C16.6051 19.7433 16.6227 19.731 16.6227 19.7275C16.6227 19.7135 16.6139 19.717 16.577 19.7469ZM16.4891 19.7996C16.4574 19.8242 16.4574 19.826 16.4961 19.8066C16.5172 19.7961 16.5348 19.7838 16.5348 19.7803C16.5348 19.7662 16.526 19.7697 16.4891 19.7996ZM16.3555 19.8699C16.2887 19.905 16.2922 19.9191 16.359 19.8857C16.3889 19.8699 16.4117 19.8541 16.4117 19.8506C16.4117 19.8383 16.41 19.84 16.3555 19.8699Z" fill="#4D4D4D"/>
</g>
<defs>
<clipPath id="clip0_214_2474">
<rect width="18" height="18" fill="white" transform="translate(3 3)"/>
</clipPath>
</defs>
</svg>
