<svg width="24" height="25" viewBox="0 0 24 25" fill="none" xmlns="http://www.w3.org/2000/svg">
<rect x="0.2" y="0.7" width="23.6" height="23.6" rx="3.8" stroke="#4D4D4D" stroke-width="0.4"/>
<g clip-path="url(#clip0_216_2674)">
<path d="M9.68857 3.99927C7.0502 4.1945 4.80728 4.37404 4.70183 4.39506C4.40615 4.44779 4.13718 4.64835 4.0107 4.91232L3.8999 5.14459L3.91058 10.6803L3.92627 16.216L4.09513 16.5591C4.19024 16.749 4.83398 17.6357 5.53579 18.5484C6.92372 20.3478 7.02384 20.4482 7.55144 20.501C7.70462 20.5166 8.85494 20.4639 10.1004 20.3902C11.3512 20.3111 13.3561 20.1896 14.5595 20.1212C19.6991 19.8092 19.4351 19.8355 19.7305 19.5822C20.0999 19.2762 20.0735 19.7775 20.0892 13.0494C20.0999 7.34479 20.0946 6.97036 20.0101 6.79616C19.91 6.60094 19.7305 6.46378 17.3874 4.81721C15.8203 3.71962 15.7095 3.66155 15.0074 3.65087C14.7174 3.64053 12.3216 3.79871 9.68857 3.99927ZM15.6197 4.72211C15.8413 4.82222 17.4615 5.95152 17.6988 6.16811C17.7622 6.23151 17.7832 6.28424 17.7515 6.31594C17.6778 6.37935 7.65123 6.9757 7.36122 6.93332C7.22941 6.9123 7.03418 6.8332 6.92339 6.75912C6.46419 6.44776 5.32454 5.51368 5.32454 5.44527C5.32454 5.26573 5.2875 5.26573 9.75732 4.94403C10.6123 4.88596 12.0159 4.78051 12.8709 4.71176C14.7227 4.56392 15.277 4.56926 15.6197 4.72211ZM18.8071 7.60877C18.8808 7.68252 18.9442 7.82501 18.9653 7.96217C18.9809 8.08898 18.9916 10.453 18.9809 13.2076C18.9653 17.9357 18.9599 18.2313 18.8702 18.3685C18.8174 18.4529 18.712 18.5427 18.6325 18.5691C18.4113 18.6588 7.90485 19.2552 7.6886 19.1918C7.58849 19.1654 7.45099 19.081 7.37724 19.0072L7.25043 18.8701L7.23475 13.7725C7.22407 10.1947 7.23475 8.61159 7.27713 8.46909C7.30883 8.36363 7.38792 8.23682 7.45667 8.19477C7.55178 8.13137 8.17449 8.07864 10.317 7.95216C11.821 7.86773 14.148 7.72523 15.4832 7.64614C18.6592 7.45058 18.6489 7.45058 18.8071 7.60877Z" fill="#4D4D4D"/>
<path d="M15.9838 9.35533C15.4139 9.39237 14.9073 9.4451 14.8492 9.4768C14.675 9.56657 14.5696 9.71441 14.5485 9.88327C14.5328 10.0575 14.5856 10.0785 15.1552 10.1472L15.4032 10.1789V12.4322C15.4032 13.7724 15.3822 14.6591 15.3558 14.6327C15.3294 14.601 14.5802 13.4614 13.6882 12.0998C12.7965 10.7332 12.0577 9.60895 12.047 9.59861C12.0363 9.58793 11.456 9.61963 10.7595 9.66735C9.90451 9.72542 9.43497 9.77815 9.33986 9.83087C9.18668 9.90996 9.01782 10.1896 9.01782 10.3745C9.01782 10.4853 9.21839 10.5434 9.64054 10.5434H9.86213V17.0235L9.50338 17.1343C9.22373 17.2187 9.12862 17.2714 9.08123 17.3769C8.9968 17.5564 9.00214 17.72 9.08657 17.72C9.11827 17.72 9.71462 17.6829 10.4004 17.6409C11.7566 17.5618 11.9095 17.5247 12.052 17.2451C12.0944 17.1607 12.1311 17.0709 12.1311 17.0445C12.1311 17.0235 11.9465 16.9601 11.7246 16.9074C11.4977 16.8546 11.2708 16.8019 11.2234 16.7912C11.1336 16.7649 11.1283 16.6013 11.1283 14.3321V11.8993L12.7324 14.4165C14.4157 17.0549 14.627 17.3559 14.8856 17.4877C15.2076 17.6566 16.0256 17.5404 16.437 17.2714L16.5639 17.1924L16.5745 13.5935L16.5902 9.98939L16.8699 9.93666C17.2023 9.87326 17.3554 9.72041 17.3554 9.45644C17.3554 9.28758 17.3448 9.2769 17.1866 9.28224C17.0921 9.28658 16.5485 9.31828 15.9838 9.35533Z" fill="#4D4D4D"/>
</g>
<defs>
<clipPath id="clip0_216_2674">
<rect width="16.2" height="17.2414" fill="white" transform="translate(3.8999 3.45776)"/>
</clipPath>
</defs>
</svg>
