<svg width="24" height="24" viewBox="0 0 24 24" fill="none" xmlns="http://www.w3.org/2000/svg">
<rect x="0.2" y="0.2" width="23.6" height="23.6" rx="3.8" stroke="#4D4D4D" stroke-width="0.4"/>
<path d="M11.8889 15.4437C16.7981 15.4437 20.7778 13.9019 20.7778 12C20.7778 10.0981 16.7981 8.55634 11.8889 8.55634C6.97969 8.55634 3 10.0981 3 12C3 13.9019 6.97969 15.4437 11.8889 15.4437Z" stroke="#4D4D4D" stroke-width="0.888889"/>
<path d="M8.94965 13.7218C11.4043 18.0356 14.71 20.7617 16.3333 19.8108C17.9566 18.8598 17.2827 14.5919 14.8281 10.2782C12.3735 5.9644 9.06774 3.23829 7.44444 4.18923C5.82115 5.14017 6.49505 9.40806 8.94965 13.7218Z" stroke="#4D4D4D" stroke-width="0.888889"/>
<path d="M8.94965 10.2782C6.49505 14.5919 5.82115 18.8598 7.44444 19.8108C9.06774 20.7617 12.3735 18.0356 14.8281 13.7218C17.2827 9.40806 17.9566 5.14017 16.3333 4.18923C14.71 3.23829 11.4043 5.9644 8.94965 10.2782Z" stroke="#4D4D4D" stroke-width="0.888889"/>
</svg>
