<svg width="24" height="24" viewBox="0 0 24 24" fill="none" xmlns="http://www.w3.org/2000/svg">
<rect x="0.2" y="0.2" width="23.6" height="23.6" rx="3.8" stroke="#4D4D4D" stroke-width="0.4"/>
<g clip-path="url(#clip0_445_974)">
<path d="M14.1074 13.9121L13.7623 14.5053C13.7112 14.5931 13.6376 14.666 13.549 14.7167C13.4603 14.7674 13.3598 14.794 13.2574 14.7941H10.6131C10.5107 14.794 10.4102 14.7674 10.3215 14.7167C10.2329 14.666 10.1593 14.5931 10.1082 14.5053L9.76302 13.9121H14.1074ZM15.0738 12.2516L14.4651 13.2974H9.40537L8.79676 12.2516H15.0738ZM14.4875 10.6278L15.0747 11.6369H8.79578L9.38301 10.6278H14.4875ZM13.2573 9.09277C13.3597 9.09277 13.4603 9.11946 13.5489 9.17015C13.6376 9.22085 13.7112 9.29375 13.7623 9.38154L14.1298 10.0131H9.74074L10.1083 9.38154C10.1594 9.29377 10.233 9.22086 10.3216 9.17017C10.4102 9.11948 10.5108 9.09278 10.6132 9.09277H13.2573Z" fill="#00435B"/>
<path d="M6.767 8.81755C6.47408 7.41191 6.41117 6.33379 6.60054 5.55097C6.71315 5.08537 6.91898 4.70555 7.23207 4.43146C7.56259 4.14214 7.98042 4.00016 8.44998 4.00016C9.22449 4.00016 10.0388 4.34972 10.9089 5.01372C11.2639 5.28461 11.6322 5.61108 12.0147 5.99334C12.0453 5.95459 12.0796 5.918 12.118 5.88412C13.1996 4.93038 14.1101 4.33769 14.889 4.10923C15.3521 3.9733 15.7869 3.96036 16.1828 4.09226C16.6007 4.23139 16.9337 4.51918 17.1687 4.92217C17.5565 5.58729 17.6587 6.46123 17.5141 7.5404C17.4552 7.98026 17.3545 8.45936 17.2122 8.97852C17.2659 8.98492 17.3197 8.99675 17.373 9.01421C18.7452 9.4643 19.717 9.94819 20.3052 10.5013C20.6553 10.8303 20.8838 11.1967 20.9665 11.6022C21.0537 12.0303 20.9686 12.4596 20.734 12.8623C20.3469 13.5265 19.6353 14.0502 18.6215 14.4651C18.2145 14.6317 17.7538 14.7826 17.2392 14.9183C17.2627 14.9708 17.281 15.0265 17.2931 15.085C17.5861 16.4906 17.6489 17.5687 17.4596 18.3515C17.347 18.8171 17.1411 19.197 16.828 19.471C16.4975 19.7604 16.0796 19.9023 15.6102 19.9023C14.8356 19.9023 14.0214 19.5528 13.1513 18.8888C12.7925 18.615 12.4201 18.2845 12.0331 17.8969C11.9924 17.9599 11.9431 18.0171 11.8866 18.0668C10.8051 19.0207 9.89446 19.6132 9.1156 19.8418C8.6525 19.9777 8.21773 19.9906 7.82183 19.8587C7.40387 19.7196 7.07088 19.4318 6.83589 19.0288C6.44814 18.3637 6.34594 17.4898 6.49046 16.4106C6.55155 15.9549 6.65748 15.4569 6.80805 14.916C6.74803 14.91 6.68886 14.8974 6.63161 14.8786C5.2594 14.4285 4.28765 13.9446 3.69936 13.3915C3.34929 13.0625 3.12077 12.6962 3.0381 12.2906C2.95094 11.8626 3.03599 11.4332 3.27064 11.0305C3.65768 10.3663 4.36933 9.84252 5.38312 9.4277C5.80228 9.25609 6.27824 9.10123 6.8115 8.96238C6.79226 8.91554 6.77737 8.86706 6.767 8.81755Z" fill="#202020"/>
<path d="M16.3334 15.2233C16.3989 15.2118 16.4663 15.2257 16.5217 15.2621C16.5772 15.2985 16.6163 15.3546 16.6311 15.4188L16.6327 15.4266L16.6472 15.5013C17.1189 17.9554 16.7867 19.1824 15.6505 19.1824C14.5389 19.1824 13.1238 18.1354 11.4053 16.0413C11.3747 16.0041 11.3554 15.9591 11.3493 15.9116C11.3433 15.864 11.3509 15.8157 11.3713 15.7722C11.3916 15.7287 11.4239 15.6917 11.4644 15.6654C11.5049 15.6392 11.552 15.6246 11.6005 15.6236H11.6085L11.699 15.6242C12.4222 15.6281 13.1252 15.6031 13.8081 15.5493C14.6142 15.4858 15.4559 15.3771 16.3334 15.2233ZM8.53065 13.3683L8.53501 13.3756L8.58042 13.454C8.94431 14.0801 9.32343 14.6743 9.71778 15.2367C10.1823 15.899 10.7046 16.5694 11.2846 17.2481C11.3277 17.2985 11.3495 17.3633 11.3454 17.4292C11.3414 17.495 11.3118 17.5568 11.2629 17.6017L11.2564 17.6074L11.198 17.6572C9.27853 19.2848 8.03095 19.6097 7.45529 18.6319C6.89176 17.6749 7.09606 15.9347 8.06818 13.4113C8.08539 13.3665 8.11491 13.3275 8.15339 13.2985C8.19187 13.2696 8.23777 13.2519 8.2859 13.2474C8.33403 13.2429 8.38247 13.2519 8.42572 13.2732C8.46898 13.2946 8.50533 13.3275 8.53065 13.3683ZM17.3074 9.74711L17.3152 9.74969L17.3875 9.77431C19.7568 10.59 20.6569 11.4863 20.0879 12.4634C19.5315 13.419 17.9138 14.1147 15.2348 14.5506C15.1862 14.5585 15.1364 14.5526 15.0911 14.5334C15.0458 14.5143 15.007 14.4829 14.9792 14.4427C14.9514 14.4025 14.9357 14.3554 14.934 14.3067C14.9322 14.258 14.9446 14.2099 14.9695 14.1679C15.3532 13.522 15.6988 12.8793 16.0063 12.2398C16.355 11.5145 16.6822 10.7361 16.988 9.90447C17.0102 9.84402 17.0545 9.79405 17.1122 9.76448C17.17 9.7349 17.2368 9.72789 17.2995 9.74482L17.3074 9.74711ZM8.93836 9.33647C8.96768 9.35351 8.99332 9.3761 9.01382 9.40296C9.03432 9.42981 9.04927 9.46039 9.05782 9.49296C9.06637 9.52554 9.06835 9.55946 9.06366 9.59279C9.05896 9.62612 9.04767 9.6582 9.03044 9.68722C8.64663 10.3331 8.30102 10.9758 7.9936 11.6154C7.64494 12.3406 7.31772 13.119 7.01194 13.9507C6.98924 14.0124 6.94343 14.0632 6.88399 14.0925C6.82454 14.1218 6.756 14.1273 6.69253 14.108L6.68465 14.1054L6.61239 14.0807C4.24315 13.2651 3.34301 12.3688 3.91197 11.3918C4.46842 10.4362 6.08614 9.74041 8.76515 9.30447C8.8249 9.29473 8.8862 9.30607 8.93836 9.33647ZM16.5446 5.31915C17.1081 6.27623 16.9038 8.01647 15.9317 10.5399C15.9145 10.5846 15.885 10.6236 15.8465 10.6526C15.808 10.6816 15.7621 10.6993 15.714 10.7037C15.6659 10.7082 15.6174 10.6993 15.5742 10.6779C15.5309 10.6565 15.4946 10.6236 15.4693 10.5829L15.4649 10.5756L15.4195 10.4972C15.0556 9.87108 14.6765 9.27683 14.2821 8.71442C13.8176 8.05216 13.2953 7.38169 12.7153 6.70301C12.6722 6.65264 12.6504 6.58778 12.6545 6.52193C12.6585 6.45608 12.6881 6.39431 12.737 6.34948L12.7435 6.3437L12.8019 6.29396C14.7214 4.66637 15.9689 4.34143 16.5446 5.31915ZM8.44658 4.73682C9.55821 4.73682 10.9733 5.78382 12.6918 7.87783C12.7223 7.91504 12.7417 7.95999 12.7477 8.00756C12.7537 8.05513 12.7461 8.10341 12.7258 8.14692C12.7054 8.19043 12.6732 8.22743 12.6327 8.2537C12.5922 8.27998 12.545 8.29448 12.4966 8.29556H12.4886L12.398 8.29501C11.6749 8.29111 10.9719 8.31606 10.289 8.36986C9.48285 8.4334 8.64108 8.54208 7.76367 8.69591C7.69819 8.70738 7.63076 8.69348 7.57535 8.65708C7.51994 8.62069 7.4808 8.5646 7.46604 8.50043L7.46436 8.49257L7.4498 8.41786C6.97808 5.96383 7.31034 4.73682 8.44658 4.73682Z" fill="#7C7C7C"/>
<path d="M10.8257 9.12476H13.0453C13.2048 9.12475 13.3614 9.16639 13.4994 9.24548C13.6374 9.32457 13.7519 9.4383 13.8312 9.57519L14.9458 11.497C15.0246 11.6329 15.066 11.7868 15.066 11.9434C15.066 12.1 15.0246 12.2539 14.9458 12.3898L13.8312 14.3116C13.7519 14.4485 13.6374 14.5622 13.4994 14.6413C13.3614 14.7204 13.2048 14.7621 13.0453 14.762H10.8257C10.5011 14.762 10.2013 14.5902 10.0396 14.3116L8.92528 12.3898C8.84648 12.2539 8.80501 12.1 8.80501 11.9434C8.80501 11.7868 8.84648 11.6329 8.92528 11.497L10.0397 9.57519C10.1191 9.43829 10.2336 9.32455 10.3716 9.24546C10.5096 9.16637 10.6662 9.12474 10.8257 9.12476ZM12.707 9.70479C13.0318 9.70479 13.3318 9.87683 13.4933 10.1556L14.2704 11.4974C14.3491 11.6332 14.3905 11.7869 14.3905 11.9434C14.3905 12.0999 14.3491 12.2536 14.2704 12.3894L13.4933 13.7312C13.4139 13.8681 13.2994 13.982 13.1614 14.0611C13.0233 14.1403 12.8666 14.182 12.707 14.1819H11.1641C10.8393 14.1819 10.5393 14.01 10.3778 13.7312L9.60066 12.3894C9.52202 12.2536 9.48064 12.0999 9.48064 11.9434C9.48064 11.7869 9.52202 11.6332 9.60066 11.4974L10.3778 10.1556C10.4572 10.0187 10.5717 9.90484 10.7097 9.82568C10.8477 9.74653 11.0045 9.70485 11.164 9.70486L12.707 9.70479ZM12.3424 10.3392H11.5287C11.3693 10.3392 11.2127 10.3808 11.0747 10.4598C10.9367 10.5389 10.8223 10.6525 10.7429 10.7893L10.3322 11.4966C10.2533 11.6325 10.2117 11.7866 10.2117 11.9434C10.2117 12.1002 10.2533 12.2543 10.3322 12.3902L10.7429 13.0976C10.8223 13.2344 10.9367 13.348 11.0747 13.427C11.2127 13.5061 11.3693 13.5477 11.5287 13.5476H12.3424C12.6669 13.5476 12.9666 13.376 13.1282 13.0976L13.5389 12.3902C13.6178 12.2543 13.6594 12.1002 13.6594 11.9434C13.6594 11.7866 13.6178 11.6325 13.5389 11.4966L13.1282 10.7892C13.0488 10.6524 12.9344 10.5388 12.7964 10.4598C12.6584 10.3807 12.5018 10.3392 12.3424 10.3392ZM11.9914 10.9464C12.3156 10.9464 12.6151 11.1178 12.7768 11.3958L12.835 11.496C12.9142 11.632 12.9559 11.7863 12.9559 11.9433C12.9559 12.1004 12.9142 12.2546 12.835 12.3907L12.7768 12.4909C12.6973 12.6275 12.5829 12.741 12.445 12.8199C12.3071 12.8988 12.1506 12.9403 11.9914 12.9403H11.8797C11.7205 12.9403 11.564 12.8988 11.4261 12.8199C11.2882 12.741 11.1738 12.6275 11.0943 12.4909L11.0361 12.3907C10.9569 12.2546 10.9152 12.1004 10.9152 11.9433C10.9152 11.7863 10.9569 11.632 11.0361 11.496L11.0943 11.3958C11.1738 11.2592 11.2882 11.1457 11.4261 11.0668C11.564 10.9879 11.7205 10.9464 11.8797 10.9464H11.9914ZM11.9357 11.5446C11.8649 11.5446 11.7954 11.563 11.734 11.598C11.6727 11.633 11.6218 11.6833 11.5863 11.744C11.551 11.8046 11.5323 11.8733 11.5323 11.9433C11.5323 12.0133 11.551 12.0821 11.5863 12.1427C11.6217 12.2034 11.6727 12.2537 11.734 12.2887C11.7953 12.3238 11.8648 12.3422 11.9356 12.3422C12.0064 12.3422 12.0759 12.3238 12.1372 12.2887C12.1985 12.2537 12.2494 12.2034 12.2848 12.1427C12.3202 12.0821 12.3388 12.0133 12.3388 11.9433C12.3388 11.8733 12.3202 11.8046 12.2848 11.744C12.2494 11.6833 12.1985 11.633 12.1372 11.598C12.0759 11.563 12.0064 11.5446 11.9357 11.5446ZM8.66638 11.9433H9.39182Z" fill="#D5D5D5"/>
</g>
<defs>
<clipPath id="clip0_445_974">
<rect width="18" height="16" fill="white" transform="translate(3 4)"/>
</clipPath>
</defs>
</svg>
