<svg width="24" height="25" viewBox="0 0 24 25" fill="none" xmlns="http://www.w3.org/2000/svg">
<rect x="0.2" y="0.7" width="23.6" height="23.6" rx="3.8" stroke="#4D4D4D" stroke-width="0.4"/>
<g clip-path="url(#clip0_216_2680)">
<path fill-rule="evenodd" clip-rule="evenodd" d="M9.83955 4.40186C8.94404 4.40252 8.21929 5.12925 8.21995 6.02477C8.21929 6.92028 8.9447 7.64702 9.84021 7.64768H11.4605V6.02543C11.4611 5.12992 10.7357 4.40318 9.83955 4.40186C9.84021 4.40186 9.84021 4.40186 9.83955 4.40186ZM9.83955 8.7305H5.52017C4.62465 8.73117 3.89924 9.4579 3.8999 10.3534C3.89858 11.2489 4.62399 11.9757 5.51951 11.977H9.83955C10.7351 11.9763 11.4605 11.2496 11.4598 10.3541C11.4605 9.4579 10.7351 8.73117 9.83955 8.7305Z" fill="#4D4D4D"/>
<path fill-rule="evenodd" clip-rule="evenodd" d="M20.1 10.3534C20.1006 9.4579 19.3752 8.73117 18.4797 8.7305C17.5842 8.73117 16.8588 9.4579 16.8594 10.3534V11.977H18.4797C19.3752 11.9763 20.1006 11.2496 20.1 10.3534ZM15.7799 10.3534V6.02477C15.7806 5.12992 15.0558 4.40318 14.1603 4.40186C13.2648 4.40252 12.5394 5.12925 12.54 6.02477V10.3534C12.5387 11.2489 13.2641 11.9757 14.1596 11.977C15.0552 11.9763 15.7806 11.2496 15.7799 10.3534Z" fill="#4D4D4D"/>
<path fill-rule="evenodd" clip-rule="evenodd" d="M14.1596 20.6341C15.0551 20.6335 15.7805 19.9067 15.7798 19.0112C15.7805 18.1157 15.0551 17.389 14.1596 17.3883H12.5393V19.0112C12.5386 19.9061 13.2641 20.6328 14.1596 20.6341ZM14.1596 16.3048H18.4796C19.3751 16.3042 20.1005 15.5774 20.0999 14.6819C20.1012 13.7864 19.3758 13.0597 18.4803 13.0583H14.1602C13.2647 13.059 12.5393 13.7857 12.54 14.6813C12.5393 15.5774 13.2641 16.3042 14.1596 16.3048Z" fill="#4D4D4D"/>
<path fill-rule="evenodd" clip-rule="evenodd" d="M3.8999 14.682C3.89924 15.5775 4.62465 16.3042 5.52017 16.3049C6.41568 16.3042 7.14109 15.5775 7.14043 14.682V13.0591H5.52017C4.62465 13.0597 3.89924 13.7865 3.8999 14.682ZM8.21995 14.682V19.0106C8.21862 19.9062 8.94404 20.6329 9.83955 20.6342C10.7351 20.6336 11.4605 19.9068 11.4598 19.0113V14.6833C11.4611 13.7878 10.7357 13.0611 9.84021 13.0597C8.94404 13.0597 8.21928 13.7865 8.21995 14.682Z" fill="#4D4D4D"/>
</g>
<defs>
<clipPath id="clip0_216_2680">
<rect width="16.2" height="16.2324" fill="white" transform="translate(3.8999 4.40186)"/>
</clipPath>
</defs>
</svg>
