<svg width="24" height="24" viewBox="0 0 24 24" fill="none" xmlns="http://www.w3.org/2000/svg">
<rect x="0.2" y="0.2" width="23.6" height="23.6" rx="3.8" stroke="#4D4D4D" stroke-width="0.4"/>
<path d="M15.5117 8L15.4492 8.32583C15.3525 8.94333 15.3875 9.12 15.6525 9.34917L15.9083 9.56083L15.6433 10.7425C15.485 11.4475 15.2908 12.0383 15.1675 12.2325C15.0617 12.4 14.9383 12.6467 14.9117 12.7792C14.8675 12.9375 14.7175 13.0967 14.4883 13.2375C14.2858 13.3525 13.8883 13.6608 13.6067 13.9083C13.3817 14.1108 13.2267 14.235 13.1425 14.2883L12.8675 14.5058C12.7792 14.6475 12.7292 14.7617 12.71 14.8483C12.6908 14.9375 12.7017 14.9967 12.73 15.04C12.7575 15.0817 12.805 15.1108 12.87 15.1292C12.9469 15.1472 13.0261 15.1537 13.105 15.1483C13.2834 15.1361 13.46 15.1049 13.6317 15.055C13.69 15.0392 13.7358 15.0242 13.7758 15.0108C13.8375 14.935 13.98 14.7917 14.2325 14.5425C14.9025 13.8817 15.1583 13.52 14.8942 13.6175C14.7967 13.6525 14.8408 13.5642 15.0083 13.3875C15.3617 13.0433 15.5642 12.5233 15.9875 10.8925C16.3225 9.605 16.3225 9.58667 16.5692 9.58667C16.685 9.58667 17.0125 9.60667 17.0125 9.60667V8H16.2608H15.5117ZM18.7108 10.6375C18.6575 10.6375 18.5692 10.7175 18.5167 10.8058C18.42 10.9642 18.5342 11.0608 19.9892 11.9692C20.8533 12.5167 21.55 12.9833 21.5325 13.0192C21.515 13.045 20.8092 13.5042 19.9633 14.0333C18.4283 14.985 18.42 14.9942 18.5608 15.1883C18.7375 15.4175 18.5608 15.4967 20.5533 14.2533L22 13.3275V12.6308L20.3858 11.6342C19.5133 11.0875 18.755 10.6467 18.7108 10.6375ZM5.30667 10.735C5.2625 10.735 4.50417 11.185 3.63167 11.7225L2 12.7192V13.4158L3.6225 14.43C4.5225 14.985 5.28083 15.4442 5.31583 15.4442C5.35083 15.4442 5.42167 15.3642 5.4925 15.2675C5.59833 15.1 5.50917 15.0292 4.01917 14.0858C2.6 13.195 2.45 13.0717 2.59167 12.975C2.68 12.9133 3.35 12.4983 4.07333 12.0492C5.7225 11.035 5.63417 11.105 5.50167 10.8933C5.44917 10.8058 5.36 10.7267 5.3075 10.735H5.30667ZM12.5433 10.7542C12.3 10.7525 11.7767 11.1233 10.21 12.4025C10.1425 12.5633 10.1367 12.6742 10.1675 12.7458C10.1875 12.795 10.2242 12.8292 10.275 12.8542C10.325 12.8792 10.39 12.8942 10.4617 12.9C10.6042 12.9125 10.7725 12.89 10.9083 12.8633L11 12.8425C11.0314 12.8004 11.0726 12.7667 11.12 12.7442C11.2167 12.6908 11.6225 12.3208 12.0283 11.9242C12.7425 11.2008 12.91 10.8742 12.6192 10.7683C12.5953 10.7588 12.569 10.754 12.5433 10.7542ZM14.3733 11.2567C14.1592 11.2625 13.7733 11.5108 13.1125 12.0383C12.7808 12.3075 12.5708 12.4525 12.4583 12.4825L12.0217 12.8275C11.8575 13.1275 11.8333 13.3133 11.8767 13.4158C11.8875 13.4411 11.9033 13.464 11.923 13.4832C11.9427 13.5023 11.9661 13.5174 11.9917 13.5275C12.0553 13.5526 12.1232 13.5654 12.1917 13.565C12.3552 13.5633 12.5178 13.5394 12.675 13.4942C12.7569 13.4722 12.8378 13.4466 12.9175 13.4175L12.9417 13.4075L12.9858 13.3842C13.0692 13.2767 13.2608 13.0742 13.5008 12.8408C14.2592 12.1092 14.6467 11.5892 14.5675 11.395C14.5317 11.3008 14.47 11.2533 14.3733 11.2567ZM12.3533 12.1567C12.2917 12.1633 12.1533 12.27 11.9042 12.4883C11.5442 12.8067 11.1517 12.99 11.0158 12.9083C10.9843 12.9155 10.9526 12.9221 10.9208 12.9283C10.7825 12.9558 10.61 12.9783 10.4558 12.9658C10.3832 12.9614 10.312 12.9436 10.2458 12.9133C10.1834 12.8848 10.1336 12.8344 10.1058 12.7717C10.075 12.6967 10.075 12.6033 10.11 12.4842L9.56833 12.9292L8.3425 13.9433V15.5875L12.3592 12.4233C12.3584 12.3887 12.3629 12.3541 12.3725 12.3208C12.4033 12.2092 12.4017 12.1525 12.3533 12.1575V12.1567ZM14.0817 12.6892C14.0208 12.6892 13.9192 12.775 13.7567 12.9475C13.5358 13.1833 13.1883 13.4117 13.0042 13.4583L12.9758 13.4733C12.9456 13.4858 12.915 13.4975 12.8842 13.5083C12.8342 13.525 12.7692 13.545 12.6942 13.565C12.5442 13.6058 12.3575 13.6433 12.1908 13.6392C12.1123 13.6391 12.0344 13.6238 11.9617 13.5942C11.8931 13.5659 11.8381 13.5121 11.8083 13.4442C11.76 13.3283 11.7792 13.1658 11.885 12.935L8.34167 15.7258V16.73H9.89833L13.2 14.1367C13.2858 14.0417 13.415 13.9117 13.5892 13.7492C14.0558 13.3167 14.1617 13.1675 14.1617 12.9467C14.1617 12.775 14.1425 12.6883 14.0817 12.6883V12.6892ZM14.8675 14.3142L14.585 14.5958C14.4267 14.7458 14.1442 14.9308 13.9508 15.01L13.9125 15.0267L13.91 15.0308L13.9017 15.0392C13.8942 15.045 13.8908 15.0458 13.885 15.0483C13.8078 15.0775 13.7294 15.1034 13.65 15.1258C13.4734 15.1772 13.2918 15.2094 13.1083 15.2217C13.0216 15.2272 12.9345 15.2196 12.85 15.1992C12.7767 15.183 12.712 15.1403 12.6683 15.0792C12.6283 15.0175 12.6167 14.935 12.6392 14.8333C12.6571 14.761 12.6836 14.691 12.7183 14.625L10.0542 16.73H13.5975L14.0208 16.245C14.6025 15.5667 14.8675 15.0817 14.8675 14.6667V14.3142Z" fill="#4D4D4D"/>
</svg>
