<svg width="24" height="24" viewBox="0 0 24 24" fill="none" xmlns="http://www.w3.org/2000/svg">
<rect x="0.2" y="0.2" width="23.6" height="23.6" rx="3.8" stroke="#4D4D4D" stroke-width="0.4"/>
<path fill-rule="evenodd" clip-rule="evenodd" d="M12.3333 7C10.1108 7 8.7225 8.10417 8.16667 10.3133C9 9.20917 9.9725 8.795 11.0833 9.07083C11.7175 9.22833 12.1708 9.68583 12.6717 10.1917C13.4892 11.0158 14.435 11.97 16.5 11.97C18.7225 11.97 20.1108 10.8658 20.6667 8.65667C19.8333 9.76083 18.8617 10.175 17.75 9.89917C17.1158 9.74167 16.6625 9.28417 16.1608 8.77833C15.3442 7.95333 14.3992 7 12.3333 7ZM8.16667 11.97C5.94417 11.97 4.55583 13.0742 4 15.2833C4.83333 14.1783 5.80583 13.765 6.91667 14.0408C7.55083 14.1983 8.00417 14.6558 8.50583 15.1617C9.3225 15.9858 10.2683 16.94 12.3342 16.94C14.5567 16.94 15.945 15.8358 16.5008 13.6267C15.6675 14.7308 14.695 15.145 13.5842 14.8692C12.95 14.7117 12.4967 14.2542 11.9958 13.7483C11.1775 12.9242 10.2317 11.97 8.16667 11.97Z" fill="#4D4D4D"/>
</svg>
