<svg width="24" height="24" viewBox="0 0 24 24" fill="none" xmlns="http://www.w3.org/2000/svg">
<rect x="0.2" y="0.2" width="23.6" height="23.6" rx="3.8" stroke="#4D4D4D" stroke-width="0.4"/>
<path d="M6 11.9346V12.7414H8.574V20.0674H10.4006V12.7414H12.9746V11.9494C12.9746 11.5039 12.9746 11.1426 12.9548 11.1327C12.9548 11.1178 11.3856 11.1129 9.47985 11.1129L6.01485 11.1277V11.9395L6 11.9346ZM17.5682 11.1079C18.0731 11.2267 18.4592 11.4544 18.8057 11.8158C18.9888 12.0138 19.261 12.3603 19.2808 12.4494C19.2808 12.4791 18.4245 13.0582 17.9048 13.38C17.885 13.3948 17.8058 13.3107 17.7266 13.182C17.4692 12.8157 17.2068 12.6573 16.796 12.6276C16.202 12.588 15.806 12.8998 15.806 13.4196C15.806 13.578 15.8357 13.6671 15.8951 13.7958C16.0287 14.068 16.2762 14.2314 17.0435 14.568C18.4592 15.1768 19.0729 15.5778 19.4442 16.152C19.8649 16.7955 19.959 17.8053 19.6769 18.5626C19.3601 19.3893 18.5879 19.9486 17.484 20.1318C17.1375 20.1912 16.3455 20.1813 15.9743 20.1169C15.1823 19.9684 14.4249 19.5724 13.9596 19.0626C13.7765 18.8646 13.425 18.3349 13.4448 18.3003L13.6329 18.1815L14.3754 17.7508L14.9348 17.4241L15.0635 17.5974C15.2268 17.8548 15.5931 18.2013 15.806 18.3201C16.4495 18.6517 17.3108 18.6072 17.7365 18.2211C17.9196 18.0528 17.9988 17.8746 17.9988 17.6271C17.9988 17.3994 17.9642 17.2954 17.8503 17.1222C17.6919 16.9044 17.3751 16.7262 16.4841 16.3302C15.4595 15.8946 15.0239 15.6174 14.618 15.1917C14.3853 14.9343 14.1725 14.5333 14.0735 14.2017C13.9992 13.9146 13.9745 13.2117 14.0438 12.9295C14.2566 11.9395 15.0041 11.2465 16.0733 11.0485C16.4198 10.9792 17.2365 11.0089 17.5781 11.098L17.5682 11.1079Z" fill="#4D4D4D"/>
</svg>
