<svg width="24" height="24" viewBox="0 0 24 24" fill="none" xmlns="http://www.w3.org/2000/svg" style="filter: grayscale(100%)">
<rect x="0.2" y="0.2" width="23.6" height="23.6" rx="3.8" stroke="#4D4D4D" stroke-width="0.4"/>
<path d="M20.2499 12.7501L20.1299 12.8176C20.1213 12.6239 20.0379 12.4412 19.8974 12.3076C19.802 12.1732 19.6719 12.0671 19.5211 12.0004C19.3703 11.9338 19.2043 11.9092 19.0406 11.9292C18.8769 11.9492 18.7217 12.013 18.5913 12.1139C18.461 12.2149 18.3603 12.3492 18.2999 12.5026C18.2624 12.5851 18.8324 13.3276 18.8099 13.4101C18.6205 13.4948 18.4508 13.6178 18.3113 13.7714C18.1719 13.925 18.0659 14.1059 17.9999 14.3026C18.0749 13.9501 17.8124 13.7851 17.4149 13.9126C17.2155 13.9759 17.0349 14.0879 16.8895 14.2385C16.7442 14.3891 16.6386 14.5735 16.5824 14.7751C16.6349 14.4226 16.3499 14.2351 15.9449 14.3326C15.7483 14.3744 15.5677 14.4714 15.4242 14.6122C15.2808 14.753 15.1804 14.9318 15.1349 15.1276C15.1724 14.7826 14.8649 14.5576 14.4524 14.6251C14.2627 14.6511 14.0867 14.7385 13.9513 14.874C13.8159 15.0094 13.7285 15.1854 13.7024 15.3751C13.7024 15.0226 13.3949 14.7751 12.9524 14.7976C12.7682 14.7963 12.5899 14.8628 12.4515 14.9845C12.3132 15.1063 12.2245 15.2747 12.2024 15.4576C12.1753 15.2788 12.0845 15.1158 11.9466 14.9986C11.8088 14.8815 11.6333 14.8181 11.4524 14.8201C11.0399 14.8201 10.7024 15.0601 10.7024 15.4051C10.673 15.2091 10.5787 15.0287 10.4345 14.8927C10.2904 14.7567 10.1048 14.6731 9.90743 14.6551C9.49493 14.6026 9.15743 14.8276 9.23993 15.1801C9.19206 14.9837 9.08891 14.8052 8.94269 14.6656C8.79648 14.526 8.61333 14.4313 8.41493 14.3926C8.00993 14.3026 7.72493 14.5051 7.79243 14.8576C7.72864 14.6596 7.61737 14.4803 7.46834 14.3351C7.31931 14.19 7.13704 14.0836 6.93743 14.0251C6.53993 13.8976 6.27743 14.0701 6.35993 14.4226C6.27743 14.0701 5.39243 12.5851 5.29493 12.3676C5.03243 11.7601 4.54493 11.5726 4.10243 11.9626C3.99587 12.0789 3.92176 12.2213 3.88753 12.3753C3.85331 12.5293 3.86017 12.6896 3.90743 12.8401C3.62993 12.7651 3.48743 12.9001 3.59243 13.1926C4.14743 14.8276 4.70243 16.4776 5.15993 18.1426C5.28715 18.9373 5.62077 19.6847 6.12743 20.3101C6.54773 20.6738 7.02714 20.963 7.54493 21.1651C9.01926 21.7486 10.5946 22.0341 12.1799 22.0051C13.9697 22.0239 15.7374 21.6096 17.3324 20.7976C17.9088 20.5327 18.3734 20.0733 18.6449 19.5001C19.0424 18.4951 19.3349 17.4376 19.6424 16.4326C19.9949 15.2851 20.2574 14.0701 20.7074 12.9976C20.8199 12.6676 20.6099 12.5476 20.2499 12.7501Z" fill="#48A2AD"/>
<path d="M12.1276 17.3551C16.4926 17.3551 20.0401 15.9301 20.0401 14.1751C20.0401 12.4201 16.5001 10.9951 12.1276 10.9951C7.75509 10.9951 4.21509 12.4201 4.21509 14.1751C4.21509 15.9301 7.75509 17.3551 12.1276 17.3551Z" fill="url(#paint0_radial_215_2558)"/>
<path d="M18.8476 9.6376C18.6851 9.47537 18.5009 9.33654 18.3001 9.2251C18.3001 9.2251 13.2601 10.8601 9.75012 10.6876C6.24012 10.5151 6.75012 10.1251 4.98012 11.2501C4.98012 11.2501 4.49262 11.9476 5.08512 12.3751C5.95886 12.9634 6.91397 13.4208 7.92012 13.7326C8.0239 13.6442 8.15202 13.5893 8.28762 13.5751C11.6326 12.4201 18.1426 13.8976 18.8476 9.6376Z" fill="url(#paint1_linear_215_2558)"/>
<path d="M18.8401 9.63745C18.1351 13.89 11.6326 12.42 8.2876 13.5825C8.14938 13.5951 8.01843 13.6501 7.9126 13.74C10.6126 14.61 13.9126 14.79 16.1176 14.055C18.8851 13.1325 20.1376 10.95 18.8401 9.63745Z" fill="#EB5E8E"/>
<path d="M17.4149 6.49512C17.7327 6.72609 17.9872 7.03334 18.155 7.38855C18.3227 7.74375 18.3984 8.13548 18.3749 8.52762C18.3749 10.0276 17.1524 11.8876 11.7449 11.3476C6.33744 10.8076 4.99494 11.2651 4.99494 11.2651C4.99494 11.2651 3.35244 9.01512 6.77994 9.01512C9.85494 9.01512 14.4224 9.39012 15.4949 8.70762C17.1074 7.71762 17.1674 7.68762 17.4149 6.49512Z" fill="url(#paint2_linear_215_2558)"/>
<path d="M11.1751 5.40745C12.8326 4.37245 12.7501 2.85745 11.9251 1.57495C11.8794 1.59905 11.8442 1.63915 11.8262 1.68758C11.8082 1.73601 11.8087 1.78937 11.8276 1.83745C11.95 2.04922 12.0188 2.28773 12.028 2.53218C12.0371 2.77664 11.9864 3.01962 11.8801 3.23995C11.4001 3.91495 10.5226 4.08745 9.0751 4.88995C7.6276 5.69245 7.1701 6.38995 7.0726 7.30495C7.07141 7.34759 7.08198 7.38974 7.10314 7.42678C7.12431 7.46382 7.15526 7.49433 7.1926 7.51495C7.48121 7.65003 7.78275 7.75557 8.0926 7.82995C8.6101 6.62995 10.0651 5.99995 11.1751 5.40745Z" fill="#F77CA5"/>
<path d="M14.8051 3.48001C14.0638 2.67018 13.1656 2.0195 12.1651 1.56751C12.1327 1.55043 12.0967 1.5415 12.0601 1.5415C12.0235 1.5415 11.9875 1.55043 11.9551 1.56751C12.7501 2.85001 12.8401 4.35751 11.2051 5.40001C10.1026 5.94751 8.64009 6.62251 8.15259 7.82251C8.81318 7.98605 9.48974 8.07659 10.1701 8.09251C12.2926 8.15251 15.1426 8.04001 15.6301 7.20751C16.1176 6.37501 15.6826 4.42501 14.8051 3.48001Z" fill="url(#paint3_linear_215_2558)"/>
<path d="M17.2499 6.20995C17.2872 6.10972 17.3172 6.00696 17.3399 5.90245C16.8547 5.31857 16.1857 4.91665 15.4424 4.76245C16.8824 7.83745 9.36738 7.16995 7.22988 7.29745C6.89185 7.29697 6.55867 7.37781 6.25844 7.53314C5.95822 7.68848 5.69976 7.91375 5.50488 8.18995C5.99013 7.97336 6.49168 7.79531 7.00488 7.65745C10.3724 6.85495 15.8249 10.2225 17.2499 6.20995Z" fill="#F79EBC"/>
<path d="M17.5724 6.38259C17.5311 6.21151 17.46 6.04903 17.3624 5.90259C17.3411 6.00829 17.3084 6.11139 17.2649 6.21009C15.8249 10.2226 10.3724 6.85509 7.01242 7.65759C6.49967 7.79688 5.99823 7.97489 5.51242 8.19009C5.26425 8.5677 5.12419 9.00604 5.10742 9.45759C7.29742 8.79009 8.91742 9.45759 13.1324 9.52509C17.3474 9.59259 17.8724 7.64259 17.5724 6.38259Z" fill="url(#paint4_linear_215_2558)"/>
<path d="M20.2501 13.9501C19.8486 14.1414 19.533 14.4757 19.3651 14.8876C19.4701 14.5426 19.2301 14.4001 18.8401 14.5426C18.6411 14.6161 18.4601 14.731 18.3088 14.8797C18.1575 15.0284 18.0395 15.2074 17.9626 15.4051C18.0451 15.0676 17.7901 14.9026 17.3851 15.0151C17.182 15.0585 16.9937 15.1539 16.8386 15.292C16.6835 15.43 16.5668 15.6059 16.5001 15.8026C16.5601 15.4726 16.2826 15.2851 15.8701 15.3601C15.6756 15.3919 15.4947 15.4799 15.3494 15.6131C15.2042 15.7463 15.1011 15.919 15.0526 16.1101C15.0901 15.7876 14.7901 15.5701 14.3776 15.6151C14.1918 15.6224 14.0136 15.6912 13.8711 15.8106C13.7286 15.93 13.6298 16.0934 13.5901 16.2751C13.5901 15.9526 13.2901 15.7126 12.8776 15.7201C12.4651 15.7276 12.1276 15.9976 12.1276 16.3201C12.0956 16.1453 12.0027 15.9876 11.8654 15.875C11.728 15.7624 11.5552 15.7022 11.3776 15.7051C10.9651 15.7051 10.6276 15.9226 10.6276 16.2451C10.5903 16.0675 10.4976 15.9065 10.3627 15.7851C10.2279 15.6638 10.058 15.5885 9.87756 15.5701C9.46506 15.5176 9.12756 15.7276 9.19506 16.0576C9.1471 15.8676 9.04504 15.6956 8.90126 15.5625C8.75748 15.4293 8.57817 15.3408 8.38506 15.3076C7.98006 15.2251 7.69506 15.4051 7.75506 15.7351C7.69259 15.5421 7.58311 15.3677 7.43647 15.2276C7.28984 15.0876 7.11065 14.9861 6.91506 14.9326C6.51756 14.8126 6.25506 14.9701 6.33006 15.3076C6.25732 15.1094 6.14357 14.9287 5.99623 14.7775C5.8489 14.6263 5.6713 14.5079 5.47506 14.4301C5.08506 14.2801 4.84506 14.4301 4.94256 14.7676C4.7802 14.3535 4.47028 14.0142 4.07256 13.8151C3.69006 13.6276 3.47256 13.7476 3.58506 14.1001C4.04256 15.1651 4.33506 16.3501 4.65756 17.4676C4.94253 18.4541 5.27798 19.4254 5.66256 20.3776C5.79714 20.6409 5.98233 20.8752 6.20755 21.067C6.43276 21.2587 6.69357 21.4042 6.97506 21.4951C8.60763 22.1458 10.3557 22.4572 12.1126 22.4101C13.6834 22.4471 15.2495 22.2241 16.7476 21.7501C17.2575 21.603 17.7374 21.3668 18.1651 21.0526C18.6806 20.493 19.0197 19.7938 19.1401 19.0426C19.6051 17.4151 20.1601 15.8326 20.7076 14.2351C20.8276 13.8976 20.6176 13.7776 20.2501 13.9501Z" fill="url(#paint5_linear_215_2558)"/>
<defs>
<radialGradient id="paint0_radial_215_2558" cx="0" cy="0" r="1" gradientUnits="userSpaceOnUse" gradientTransform="translate(10.6013 15.2607) rotate(90) scale(4.6875 7.3425)">
<stop offset="0.47" stop-color="#7A4C33"/>
<stop offset="1" stop-color="#52423C"/>
</radialGradient>
<linearGradient id="paint1_linear_215_2558" x1="4.79262" y1="11.4826" x2="18.8476" y2="11.4826" gradientUnits="userSpaceOnUse">
<stop stop-color="#FF85AE"/>
<stop offset="0.32" stop-color="#FF7DA9"/>
<stop offset="0.82" stop-color="#FF669A"/>
<stop offset="1" stop-color="#FF5C93"/>
</linearGradient>
<linearGradient id="paint2_linear_215_2558" x1="4.61244" y1="8.97012" x2="18.3749" y2="8.97012" gradientUnits="userSpaceOnUse">
<stop stop-color="#FFB0CB"/>
<stop offset="0.79" stop-color="#F383A9"/>
<stop offset="1" stop-color="#F0769F"/>
</linearGradient>
<linearGradient id="paint3_linear_215_2558" x1="10.5901" y1="4.83001" x2="16.2001" y2="4.83001" gradientUnits="userSpaceOnUse">
<stop stop-color="#F697B7"/>
<stop offset="0.34" stop-color="#F78FB2"/>
<stop offset="0.86" stop-color="#F878A3"/>
<stop offset="1" stop-color="#F9719F"/>
</linearGradient>
<linearGradient id="paint4_linear_215_2558" x1="5.11492" y1="7.71009" x2="17.6399" y2="7.71009" gradientUnits="userSpaceOnUse">
<stop stop-color="#F78FB2"/>
<stop offset="0.27" stop-color="#F887AD"/>
<stop offset="0.7" stop-color="#FC709F"/>
<stop offset="1" stop-color="#FF5C93"/>
</linearGradient>
<linearGradient id="paint5_linear_215_2558" x1="12.1501" y1="15.1801" x2="12.1501" y2="21.6151" gradientUnits="userSpaceOnUse">
<stop stop-color="#4FE8FF"/>
<stop offset="0.5" stop-color="#4BDDF3"/>
<stop offset="1" stop-color="#45CEE3"/>
</linearGradient>
</defs>
</svg>
