<svg width="72" height="72" viewBox="0 0 72 72" fill="none" xmlns="http://www.w3.org/2000/svg">
<path d="M58.4549 60.4619L39.6689 41.6759C38.1689 42.9539 36.444 43.9429 34.4939 44.6429C32.544 45.3429 30.584 45.6929 28.614 45.6929C23.8099 45.6929 19.7439 44.0299 16.416 40.7039C13.088 37.3779 11.424 33.3129 11.424 28.5089C11.424 23.7049 13.0859 19.6379 16.4099 16.3079C19.7339 12.9779 23.798 11.3109 28.602 11.3069C33.406 11.3029 37.474 12.9669 40.806 16.2989C44.138 19.6309 45.8039 23.6979 45.8039 28.4999C45.8039 30.5839 45.4349 32.6009 44.6969 34.5509C43.959 36.5009 42.989 38.1689 41.787 39.5549L60.5729 58.3379L58.4549 60.4619ZM28.6169 42.6899C32.5969 42.6899 35.9569 41.3199 38.6969 38.5799C41.4369 35.8399 42.807 32.4789 42.807 28.4969C42.807 24.5149 41.4369 21.1549 38.6969 18.4169C35.9569 15.6789 32.5969 14.3089 28.6169 14.3069C24.6369 14.3049 21.2759 15.6749 18.5339 18.4169C15.7919 21.1589 14.422 24.5189 14.424 28.4969C14.426 32.4749 15.7959 35.8349 18.5339 38.5769C21.2719 41.3189 24.632 42.6889 28.614 42.6869" fill="#4141FF"/>
<path d="M28.6169 42.6899C32.5969 42.6899 35.9569 41.3199 38.6969 38.5799C41.4369 35.8399 42.807 32.4789 42.807 28.4969C42.807 24.5149 41.4369 21.1549 38.6969 18.4169C35.9569 15.6789 32.5969 14.3089 28.6169 14.3069C24.6369 14.3049 21.2759 15.6749 18.5339 18.4169C15.7919 21.1589 14.422 24.5189 14.424 28.4969C14.426 32.4749 15.7959 35.8349 18.5339 38.5769C21.2719 41.3189 24.632 42.6889 28.614 42.6869M58.455 60.4619L39.6689 41.6759C38.1689 42.9539 36.444 43.9429 34.494 44.6429C32.544 45.3429 30.584 45.6929 28.614 45.6929C23.81 45.6929 19.744 44.0299 16.416 40.7039C13.088 37.3779 11.424 33.3129 11.424 28.5089C11.424 23.7049 13.0859 19.6379 16.4099 16.3079C19.7339 12.9779 23.798 11.3109 28.602 11.3069C33.406 11.3029 37.474 12.9669 40.806 16.2989C44.138 19.6309 45.8039 23.6979 45.8039 28.4999C45.8039 30.5839 45.4349 32.6009 44.6969 34.5509C43.9589 36.5009 42.989 38.1689 41.787 39.5549L60.5729 58.3379L58.455 60.4619Z" stroke="#4141FF"/>
</svg>
